<svg xmlns="http://www.w3.org/2000/svg" viewBox="0 0 900 520" role="img" aria-label="Mansarda dopo la ristrutturazione">
  <defs>
    <linearGradient id="afterWall" x1="0" x2="1" y1="0" y2="1">
      <stop stop-color="#ffffff"/>
      <stop offset="1" stop-color="#eee8dd"/>
    </linearGradient>
    <linearGradient id="floor" x1="0" x2="0" y1="0" y2="1">
      <stop stop-color="#e4c69d"/>
      <stop offset="1" stop-color="#bb8650"/>
    </linearGradient>
  </defs>
  <rect width="900" height="520" fill="#efe4d5"/>
  <polygon points="0,0 900,0 735,318 0,400" fill="url(#afterWall)"/>
  <polygon points="0,400 900,318 900,520 0,520" fill="url(#floor)"/>
  <g stroke="#d29b5a" stroke-width="4" opacity=".7">
    <path d="M0 438h900"/>
    <path d="M0 478h900"/>
    <path d="M95 400 38 520"/>
    <path d="M220 388 170 520"/>
    <path d="M360 376 324 520"/>
    <path d="M520 360 504 520"/>
    <path d="M690 342 700 520"/>
    <path d="M830 326 866 520"/>
  </g>
  <rect x="132" y="0" width="34" height="362" rx="2" fill="#9b663b"/>
  <rect x="512" y="0" width="34" height="392" rx="2" fill="#8f5c35"/>
  <polygon points="230,48 302,31 246,235 178,254" fill="#fff7de"/>
  <polygon points="672,76 764,57 711,247 622,267" fill="#fff7de"/>
  <rect x="614" y="324" width="170" height="84" rx="7" fill="#f9f4ed"/>
  <rect x="646" y="281" width="96" height="58" rx="28" fill="#f6eee4"/>
  <rect x="180" y="328" width="210" height="72" rx="6" fill="#f5f1ea"/>
  <rect x="206" y="282" width="120" height="64" rx="30" fill="#fcf8f1"/>
  <circle cx="444" cy="104" r="8" fill="#f5c46e"/>
  <circle cx="485" cy="91" r="8" fill="#f5c46e"/>
  <circle cx="526" cy="78" r="8" fill="#f5c46e"/>
</svg>
