<svg xmlns="http://www.w3.org/2000/svg" viewBox="0 0 900 520" role="img" aria-label="Soggiorno dopo la ristrutturazione">
  <defs>
    <linearGradient id="lightWall" x1="0" x2="1" y1="0" y2="1">
      <stop stop-color="#fff9ed"/>
      <stop offset="1" stop-color="#ead6bd"/>
    </linearGradient>
  </defs>
  <rect width="900" height="520" fill="#f3dfc4"/>
  <polygon points="0,0 900,0 900,312 315,365" fill="url(#lightWall)"/>
  <polygon points="0,312 900,312 900,520 0,520" fill="#ead0aa"/>
  <g stroke="#cf9b5e" stroke-width="4" opacity=".55">
    <path d="M0 392h900"/>
    <path d="M0 442h900"/>
    <path d="M0 492h900"/>
    <path d="M110 312 52 520"/>
    <path d="M255 314 212 520"/>
    <path d="M420 315 392 520"/>
    <path d="M605 314 608 520"/>
    <path d="M780 313 824 520"/>
  </g>
  <rect x="364" y="0" width="34" height="392" rx="2" fill="#946039"/>
  <polygon points="610,94 696,76 642,265 557,284" fill="#fff8d9"/>
  <polygon points="706,70 793,51 740,247 655,267" fill="#fff8d9"/>
  <rect x="120" y="328" width="360" height="92" rx="46" fill="#fbf3e8"/>
  <rect x="190" y="286" width="88" height="78" rx="22" fill="#fff8ef"/>
  <rect x="286" y="286" width="88" height="78" rx="22" fill="#fff8ef"/>
  <rect x="530" y="300" width="180" height="120" rx="7" fill="#8e623d"/>
  <rect x="554" y="318" width="132" height="28" rx="4" fill="#f7ead5"/>
  <rect x="554" y="362" width="132" height="38" rx="4" fill="#b77d48"/>
  <circle cx="468" cy="92" r="8" fill="#f2c067"/>
  <circle cx="512" cy="78" r="8" fill="#f2c067"/>
  <circle cx="556" cy="64" r="8" fill="#f2c067"/>
</svg>
